# xmcd CD database file
#
# Track frame offsets:
#	150
#	14578
#	42302
#	68169
#	92414
#	110206
#	130996
#	138148
#	159233
#	172683
#	191391
#
# Disc length: 2635 seconds
#
# Revision: 1
# Processed by: cddbd v1.5.2PL0 Copyright (c) Steve Scherf et al.
# Submitted via: CDex 1.99.1
#
DISCID=880a490b
DTITLE=Ben van Gelder - Reprise
DYEAR=2013
DGENRE=Jazz
TTITLE0=Introduction
TTITLE1=All Rise
TTITLE2=Crystalline
TTITLE3=Tribute
TTITLE4=Into Air It Disappears
TTITLE5=R E L
TTITLE6=Yarnin
TTITLE7=Reprise
TTITLE8=Evocation
TTITLE9=August
TTITLE10=Without Haste
EXTD=YEAR: 2013
EXTT0=
EXTT1=
EXTT2=
EXTT3=
EXTT4=
EXTT5=
EXTT6=
EXTT7=
EXTT8=
EXTT9=
EXTT10=
PLAYORDER=
